<?xml version="1.0" encoding="UTF-8"?>
<svg id="Capa_2" data-name="Capa 2" xmlns="http://www.w3.org/2000/svg" viewBox="0 0 387.35 200.59">
  <defs>
    <style>
      .cls-1 {
        fill: #d9da00;
      }

      .cls-2 {
        fill: #d6d931;
      }

      .cls-3 {
        fill: #b8d8a7;
      }

      .cls-4 {
        fill: #2b3071;
      }

      .cls-5 {
        fill: #8fc9d1;
      }

      .cls-6 {
        fill: #43a1d8;
      }

      .cls-7 {
        fill: #3a3d21;
      }

      .cls-8 {
        fill: #4da8de;
      }

      .cls-9 {
        fill: #bad798;
      }

      .cls-10 {
        fill: #434b61;
      }

      .cls-11 {
        fill: #d6d92c;
      }

      .cls-12 {
        fill: #5cabbf;
      }

      .cls-13 {
        fill: #34314e;
      }

      .cls-14 {
        fill: #cbd427;
      }

      .cls-15 {
        fill: #d3d815;
      }

      .cls-16 {
        fill: #92b541;
      }

      .cls-17 {
        fill: #d2d842;
      }

      .cls-18 {
        fill: #d3d82d;
      }

      .cls-19 {
        fill: #254092;
      }

      .cls-20 {
        fill: #233a8e;
      }

      .cls-21 {
        fill: #dedc00;
      }

      .cls-22 {
        fill: #45a2d7;
      }

      .cls-23 {
        fill: #dddb30;
      }

      .cls-24 {
        fill: #5da8c0;
      }

      .cls-25 {
        fill: #b9cc2c;
      }

      .cls-26 {
        fill: #609b78;
      }

      .cls-27 {
        fill: #d1d722;
      }

      .cls-28 {
        fill: #c3d233;
      }

      .cls-29 {
        fill: #4da4d0;
      }

      .cls-30 {
        fill: #51a3cc;
      }

      .cls-31 {
        fill: #4d5537;
      }

      .cls-32 {
        fill: #ccd629;
      }

      .cls-33 {
        fill: #a9c64c;
      }

      .cls-34 {
        fill: #d9da1f;
      }

      .cls-35 {
        fill: #e1e053;
      }

      .cls-36 {
        fill: #a9b1a5;
      }

      .cls-37 {
        fill: #dbdb1b;
      }

      .cls-38 {
        fill: #d2d72f;
      }

      .cls-39 {
        fill: #409fd9;
      }

      .cls-40 {
        fill: #659e61;
      }

      .cls-41 {
        fill: #d9da09;
      }

      .cls-42 {
        fill: #bbd799;
      }

      .cls-43 {
        fill: #cbd444;
      }

      .cls-44 {
        fill: #433e55;
      }

      .cls-45 {
        fill: #8ccbc4;
      }

      .cls-46 {
        fill: #56a196;
      }

      .cls-47 {
        fill: #36367c;
      }

      .cls-48 {
        fill: #c4c506;
      }

      .cls-49 {
        fill: #55a5d2;
      }

      .cls-50 {
        fill: #b6d8b0;
      }

      .cls-51 {
        fill: #3d3866;
      }

      .cls-52 {
        fill: #59989e;
      }

      .cls-53 {
        fill: #4e9bd5;
      }

      .cls-54 {
        fill: #f2e500;
      }

      .cls-55 {
        fill: #dddb23;
      }

      .cls-56 {
        fill: #ccd528;
      }

      .cls-57 {
        fill: #d4d800;
      }

      .cls-58 {
        fill: #252551;
      }

      .cls-59 {
        fill: #60acb4;
      }

      .cls-60 {
        fill: #e7e46e;
      }

      .cls-61 {
        fill: #d7da22;
      }

      .cls-62 {
        fill: #62a9dd;
      }

      .cls-63 {
        fill: #d5d803;
      }

      .cls-64 {
        fill: #519ed4;
      }

      .cls-65 {
        fill: #c1d13c;
      }

      .cls-66 {
        fill: #efe533;
      }

      .cls-67 {
        fill: #bbc92e;
      }

      .cls-68 {
        fill: #c5d97f;
      }

      .cls-69 {
        fill: #e8e352;
      }

      .cls-70 {
        fill: #bed036;
      }

      .cls-71 {
        fill: #489ed7;
      }

      .cls-72 {
        fill: #528ecb;
      }

      .cls-73 {
        fill: #58a6cd;
      }

      .cls-74 {
        fill: #6aaa5e;
      }

      .cls-75 {
        fill: #444659;
      }

      .cls-76 {
        fill: #d6d92d;
      }

      .cls-77 {
        fill: #48a0d9;
      }

      .cls-78 {
        fill: #cfd626;
      }

      .cls-79 {
        fill: #529ecd;
      }

      .cls-80 {
        fill: #252b5c;
      }

      .cls-81 {
        fill: #c1d34f;
      }

      .cls-82 {
        fill: #56abc6;
      }

      .cls-83 {
        fill: #41a6da;
      }

      .cls-84 {
        fill: #528cc9;
      }

      .cls-85 {
        fill: #57a8cd;
      }

      .cls-86 {
        fill: #d2df8a;
      }

      .cls-87 {
        fill: #8fceca;
      }

      .cls-88 {
        fill: #e2de00;
      }

      .cls-89 {
        fill: #244092;
      }

      .cls-90 {
        fill: #62afb9;
      }

      .cls-91 {
        fill: #dee05e;
      }

      .cls-92 {
        fill: #cddd89;
      }

      .cls-93 {
        fill: #d1dc72;
      }

      .cls-94 {
        fill: #d7da20;
      }

      .cls-95 {
        fill: #b6d188;
      }

      .cls-96 {
        fill: #52a1d6;
      }

      .cls-97 {
        fill: #d0d844;
      }

      .cls-98 {
        fill: #d4d810;
      }

      .cls-99 {
        fill: #7aac6a;
      }

      .cls-100 {
        fill: #88ae45;
      }

      .cls-101 {
        fill: #f3e500;
      }

      .cls-102 {
        fill: #5dabd3;
      }

      .cls-103 {
        fill: #30382c;
      }

      .cls-104 {
        fill: #37488e;
      }

      .cls-105 {
        fill: #4b9cd6;
      }

      .cls-106 {
        fill: #b9d691;
      }

      .cls-107 {
        fill: #6f9f70;
      }

      .cls-108 {
        fill: #c7d43c;
      }

      .cls-109 {
        fill: #efe400;
      }

      .cls-110 {
        fill: #dfdf4e;
      }

      .cls-111 {
        fill: #4ea9cf;
      }

      .cls-112 {
        fill: #4fa0d7;
      }

      .cls-113 {
        fill: #373542;
      }

      .cls-114 {
        fill: #c6d439;
      }

      .cls-115 {
        fill: #d5d913;
      }

      .cls-116 {
        fill: #cdd744;
      }

      .cls-117 {
        fill: #b7d6a1;
      }

      .cls-118 {
        fill: #57a6c9;
      }

      .cls-119 {
        fill: #c8d42b;
      }

      .cls-120 {
        fill: #d4de80;
      }

      .cls-121 {
        fill: #3e451d;
      }

      .cls-122 {
        fill: #e2dc33;
      }

      .cls-123 {
        fill: #d7d911;
      }

      .cls-124 {
        fill: #90bf51;
      }

      .cls-125 {
        fill: #d5d90f;
      }

      .cls-126 {
        fill: #a9d5bb;
      }

      .cls-127 {
        fill: #80b35f;
      }

      .cls-128 {
        fill: #c7d437;
      }

      .cls-129 {
        fill: #57a5c6;
      }

      .cls-130 {
        fill: #9bcfb4;
      }

      .cls-131 {
        fill: #72a467;
      }

      .cls-132 {
        fill: #89bc9e;
      }

      .cls-133 {
        fill: #363048;
      }

      .cls-134 {
        fill: #66a9bc;
      }

      .cls-135 {
        fill: #3a3c4b;
      }

      .cls-136 {
        fill: #2d4192;
      }

      .cls-137 {
        fill: #d9db3c;
      }

      .cls-138 {
        fill: #292f6f;
      }

      .cls-139 {
        fill: #59562e;
      }

      .cls-140 {
        fill: #dfd73a;
      }

      .cls-141 {
        fill: #48a3da;
      }

      .cls-142 {
        fill: #80ad60;
      }

      .cls-143 {
        fill: #8cccc8;
      }

      .cls-144 {
        fill: #cbd63b;
      }

      .cls-145 {
        fill: #cad63c;
      }

      .cls-146 {
        fill: #5ba5d6;
      }
    </style>
  </defs>
  <g id="Capa_1-2" data-name="Capa 1">
    <g>
      <path class="cls-72" d="M56.74,0h43.5c.26,.3,.16,.62,.07,.94-.87,2.96-2.4,5.66-3.37,8.58-.03,.1-.13,.17-.21,.25-.19,.22-.53,.31-.58,.66-.03,.26-.02,.52-.04,.79-.81,2.44-1.67,4.86-2.77,7.2-.72,1.53-1.28,3.14-1.78,4.76-.12,.39-.23,.78-.52,1.09-.61,.67-.96,1.49-1.16,2.36-.95,4.28-.3,8.13,3.06,11.24,.2,.24,.43,.45,.72,.57,.67,.52,1.37,1,2.08,1.46,.26,.2,.59,.15,.88,.22,1.28,.63,2.65,.97,4.01,1.38,.11,.04,.21,.09,.3,.15,.49,.29,1.02,.19,1.54,.13,1.93-.08,3.86-.05,5.79-.03,.48,.09,.97,.11,1.46,.08,.44-.1,.88-.19,1.31-.34,.11-.03,.21-.05,.32-.06,.38-.03,.76,0,1.1-.22,1.57-.36,2.98-1.15,4.52-1.57,.42,.03,.74-.23,1.09-.38,3.81-1.29,7.63-2.57,11.44-3.85,4.2-1.41,8.42-2.77,12.61-4.23,4.05-1.4,8.12-2.72,12.19-4.09,3.64-1.22,7.28-2.44,10.93-3.62,3.2-1.03,6.39-2.1,9.54-3.26,2.04-.76,4.16-1.28,6.21-2,.39-.02,.82,.1,1.15-.24,.91-.57,1.94-.82,2.97-1.05,.42-.02,.9,.16,1.16-.37,.84-.59,1.77-.88,2.79-.91,.36,.06,.6-.16,.85-.35,1.95-1,4.06-1.57,6.12-2.27,.42-.14,.83-.3,1.26-.43,.41,0,.74-.22,1.08-.4,2.28-.63,4.41-1.69,6.7-2.27,.41,.02,.75-.16,1.08-.37,3.75-1.34,7.51-2.66,11.3-3.89,.35-.11,.7-.23,1.08-.23,.34,.07,.6-.1,.84-.31,.65-.48,1.45-.65,2.18-.96,.4,0,.71-.25,1.06-.4,1.81-.49,3.52-1.27,5.28-1.91,1.89-.69,3.81-1.29,5.74-1.84h111.2c.28,.59-.23,.69-.56,.85-.93,.45-1.92,.76-2.91,1.03-1.75,.47-3.42,1.16-5.13,1.76-.46,.16-.91,.3-1.4,.27-.36-.08-.62,.13-.89,.32-1.49,.89-3.2,1.24-4.82,1.78-.87,.29-1.71,.63-2.57,.93-.33,.03-.65,.07-.93,.28-.41,.2-.84,.26-1.28,.22-.38-.06-.7,.05-.96,.34-.64,.54-1.44,.71-2.2,.95-.32,0-.63,.07-.9,.28-1.47,.43-2.88,1-4.33,1.47-.3,.07-.63,.02-.89,.24-.13,.08-.28,.15-.43,.19-.35,.07-.72,.07-1.02,.32-1.02,.36-2.05,.7-3.08,1.04-.33,.03-.65,.05-.93,.26-1.41,.67-2.93,1.02-4.38,1.54-.34-.01-.65,.07-.93,.27-3.94,1.31-7.86,2.67-11.79,4.02-.24,.08-.49,.16-.75,.16-.35,0-.72-.07-1.04,.17-.08,.07-.16,.12-.25,.18-.4,.23-.79,.5-1.28,.53-.32-.01-.61,.08-.87,.27-1.46,.47-2.87,1.11-4.37,1.48-.33,.03-.65,.07-.92,.28-1.47,.48-2.91,1.07-4.41,1.49-.33,.03-.65,.07-.92,.28-1.44,.53-2.89,1.05-4.36,1.48-.3,.07-.64,.02-.91,.21-.14,.08-.28,.14-.43,.19-.36,.09-.74,.11-1.05,.34-2.73,1.02-5.53,1.86-8.29,2.82-.33,.03-.66,.06-.93,.28-1.48,.5-2.95,1.02-4.44,1.5-.33,.03-.67,.06-.95,.26-2.48,.78-4.89,1.79-7.4,2.45-.38,.1-.75,.25-1.11,.39-3.12,1.08-6.24,2.15-9.4,3.13-.34,0-.67,.04-.96,.25-3.17,1.33-6.49,2.25-9.74,3.33-2.1,.7-4.23,1.33-6.3,2.08-2.5,.9-5.04,1.7-7.55,2.57-2.16,.75-4.33,1.49-6.49,2.23-.35,.12-.7,.23-1.08,.23-.4-.08-.74,.04-1.03,.31-2.12,.93-4.32,1.63-6.54,2.31-1.66,.5-3.13,1.45-4.61,2.33-.88,.52-1.75,1.06-2.64,1.57-.26,.03-.56-.02-.54,.4-.06,.26-.15,.52-.34,.69-1.7,1.49-2.14,3.56-2.57,5.63-.08,.4-.15,.8-.29,1.18-.76,.67-.58,1.36-.03,2.06,.06,.14,.09,.29,.1,.45,0,.36,.06,.71,.23,1.03,.23,.51,.24,1.09,.52,1.58,.12,.33,.23,.67,.47,.94,.76,1.54,1.93,2.63,3.37,3.57,2.08,1.36,4.17,2.67,6.59,3.34,.1,.04,.19,.09,.28,.14,.43,.29,.92,.15,1.39,.18,.53-.04,1.03,.11,1.52,.28,.45,.22,.92,.16,1.39,.14,.59-.09,1.16-.05,1.73,.15,.13,.06,.25,.12,.37,.18,.65,.21,1.32,.13,1.98,.13,59.15,0,118.3,0,177.45,.01,.72,0,1.48-.21,2.15,.26,.16,.27,.1,.58,.1,.87,0,11.61,0,23.23,0,34.84,0,.26,.03,.52-.07,.76-.28,.31-.66,.29-1.03,.3-.44,.01-.89,0-1.33,0-60.36,0-120.72,0-181.08,0-.43,.01-.88-.05-1.3,.13-.21,.08-.43,.17-.64,.24-3.65,.89-6.45,3.03-8.9,5.82-1.2,1.36-1.99,2.8-2.36,4.54-.11,.41-.31,.79-.37,1.22,0,.26-.02,.52-.13,.77-.28,.36-.21,.71,.03,1.06,.37,1.24,.4,2.56,.9,3.76,.94,2.25,2.39,4.06,4.48,5.43,3.84,2.5,8.07,4.11,12.3,5.73,1.07,.41,2.14,.82,3.14,1.38,.26,.17,.5,.39,.86,.35,1.8,.45,3.48,1.23,5.17,1.95,4.11,1.74,8.23,3.46,12.34,5.22,4.48,1.91,8.99,3.77,13.48,5.64,4.05,1.69,8.04,3.54,12.17,5.03,.56,.2,1.09,.47,1.54,.86,.23,.22,.45,.43,.81,.38,1.57,.46,3.17,.86,4.53,1.85,.22,.22,.45,.42,.8,.37,1.57,.46,3.17,.86,4.53,1.85,.22,.21,.45,.42,.8,.37,1.6,.39,3.09,1.07,4.53,1.85,.22,.21,.45,.42,.8,.37,1.6,.39,3.08,1.07,4.53,1.85,.22,.21,.45,.42,.8,.37,1.6,.39,3.09,1.07,4.53,1.85,.23,.22,.46,.41,.81,.36,1.38,.2,2.56,.93,3.82,1.44,2.9,1.17,5.79,2.38,8.66,3.64,4.33,1.89,8.72,3.61,13.05,5.49,2.74,1.19,5.49,2.35,8.28,3.42,.27,.21,.61,.23,.91,.35,1.44,.96,3.27,1.08,4.65,2.18,.22,.22,.46,.4,.8,.35,2.02,.49,3.91,1.33,5.76,2.21,1.33,.63,2.85,.83,4.01,1.81,.23,.28,.54,.38,.9,.35,1.51,.62,3.16,.9,4.5,1.93,.22,.22,.45,.4,.79,.35,1.56,.47,3.16,.86,4.51,1.84,.22,.21,.44,.42,.79,.38,.75,.02,1.36,.42,2.01,.73,.25,.24,.78,.16,.77,.69-.09,.11-.2,.18-.34,.21-.3,.04-.59,.03-.89,.03-32.77,0-65.53,0-98.3,0-.54,.05-.94-.3-1.39-.51-1.89-.63-3.75-1.33-5.57-2.15-3.1-1.4-6.28-2.6-9.41-3.91-.78-.33-1.6-.58-2.27-1.14-.23-.22-.46-.43-.82-.38-2.13-.42-3.99-1.53-5.97-2.34-5.81-2.38-11.64-4.69-17.39-7.21-.23-.15-.49-.23-.76-.29-1.48-.78-3.11-1.2-4.61-1.95-.22-.16-.48-.21-.74-.28-1.51-.68-3.05-1.31-4.58-1.94-.22-.15-.49-.21-.75-.28-1.55-.61-3.04-1.36-4.6-1.95-.37-.24-.81-.26-1.19-.46-1.36-.59-2.74-1.14-4.06-1.81-.08-.06-.15-.13-.21-.21-.2-.37-.56-.23-.87-.27-1.49-.42-2.83-1.2-4.3-1.68-.22-.15-.48-.21-.74-.28-1.49-.74-3.03-1.36-4.59-1.94-.22-.15-.48-.21-.74-.28-1.45-.84-3.12-1.16-4.6-1.94-.22-.16-.48-.21-.73-.28-1.47-.83-3.18-1.18-4.56-2.2-.28-.37-.68-.27-1.05-.27-1.53-.3-2.85-1.12-4.28-1.67-.23-.13-.47-.23-.74-.21-.44,.02-.85-.11-1.26-.26-.29-.17-.61-.21-.93-.18-.34,.04-.67,0-1-.12-.11-.04-.21-.09-.3-.15-1.08-.3-2.16-.28-3.24,0-.09,.07-.19,.12-.29,.16-1.98,.25-3.93,.53-5.72,1.54-3.65,2.04-6.52,4.69-7.55,8.92-.09,.21-.19,.41-.31,.61-.55,1.13-.16,2.34-.26,3.5,0,.35,.31,.51,.49,.75,.17,.24,.32,.5,.4,.78,.75,2.73,2.68,4.75,4.18,7.03,.09,.12,.15,.25,.21,.38,.07,.33,.36,.37,.62,.45,1.42,1.21,2.94,2.29,4.05,3.87,.86,1.23,2.23,2.01,3.3,3.08,.91,.91,1.93,1.71,2.67,2.79,.1,.34,.4,.4,.68,.48,.92,.53,1.59,1.36,2.39,2.03,.39,.32,.59,.78-.05,1.13-.64,.25-1.32,.16-1.98,.16-15.68,0-31.35,0-47.03,0,16.07,0,32.14,0,48.21,0,.48,0,.96-.01,1.44,.03,.3,.16,.79,.22,.4,.75-.39,.16-.8,.1-1.21,.1-16.98,0-33.96,0-50.93,0-.41,0-.81,.04-1.21-.07-1.03-1.42-2.45-2.47-3.66-3.72-.32-.39-.68-.73-1.14-.97-1.23-1.28-2.72-2.25-4.07-3.39-.18-.15-.31-.35-.5-.49-.07-.06-.14-.12-.21-.18-.19-.21-.48-.29-.69-.49-2.56-2.22-5.36-4.1-8.14-6.02-1.36-.94-2.71-1.9-4.11-2.78-.2-.16-.45-.23-.68-.35-.77-.35-1.36-1-2.15-1.32-.25-.18-.52-.32-.82-.39-4.98-2.89-9.99-5.74-15.23-8.14-.23-.17-.51-.2-.77-.28-5.71-2.8-11.66-5.01-17.67-7.04-4.54-1.53-9.15-2.86-13.83-3.91-.51-.12-1-.25-1.36-.67-.04-.72-.54-.13-.79-.27-.36,0-.71,0-1.07,.02-.95,.2-1.82-.17-2.7-.39-2.35-.58-4.8-.64-7.1-1.46-.31-.14-.57-.41-.95-.39-.41,0-.83-.02-1.24,.02-1.59,.18-3.11-.28-4.65-.51-.12-.03-.23-.08-.33-.14-.58-.41-1.22-.24-1.85-.21-.42,.03-.83,0-1.24-.08-.39-.11-.79-.21-1.2-.25-.45-.19-.91-.19-1.38-.11-.61,.02-1.23,.04-1.83-.13-.12-.04-.23-.09-.34-.16-.35-.34-1.12-.06-1.2-.8,0-38.46,0-76.92,0-115.37,.18-.57,.68-.51,1.12-.57,.47,.07,.93,.11,1.32-.25,3.36-.9,6.49-2.47,9.82-3.44,2.34-.68,4.72-1.21,7.02-2.05,4.07-1.49,7.94-3.33,11.49-5.88,1.91-1.38,3.83-2.74,5.68-4.2,.27-.09,.58-.13,.68-.47,.42-.71,1.03-1.26,1.63-1.79,1.15-1.03,2.33-2.02,3.14-3.36,.24-.18,.52-.3,.71-.54,.94-.68,1.48-1.7,2.19-2.57,.23-.17,.51-.29,.67-.56,1.08-1.68,2.65-2.98,3.7-4.69,.29-.46,.59-.94,.95-1.36,.21-.21,.51-.32,.65-.62,1.76-2.31,3.28-4.79,5.13-7.03,.24-.29,.53-.5,.81-.73Z"/>
      <path class="cls-101" d="M206.13,46.63c1.32-.23,2.53-.82,3.79-1.23,1.47-.48,2.94-.95,4.4-1.45,2.3-.78,4.59-1.58,6.89-2.35,1.25-.42,2.55-.72,3.77-1.22,1.98-.81,4.08-1.25,6.06-2.08,1.47-.61,3.04-.97,4.56-1.46,.6-.19,1.18-.45,1.77-.68,.3-.13,.68,.13,.95-.17,1.47-.71,3.06-1.16,4.59-1.66,1.61-.52,3.22-1.18,4.91-1.49,.28-.21,.73,0,.93-.4,1.52-.49,3.08-.89,4.56-1.49,.97-.39,1.99-.58,2.94-1,.29-.14,.66,.14,.91-.19,1.49-.52,2.98-1.04,4.47-1.56,.28-.11,.63,.08,.87-.21,1.3-.45,2.59-.91,3.89-1.36,1.5-.52,3.01-1.04,4.51-1.56,.35-.15,.82,.23,1.1-.25l.2-.2c.3-.13,.68,.14,.94-.18,1.49-.52,2.97-1.05,4.46-1.57,.28-.09,.62,.05,.87-.2,1.49-.52,2.97-1.04,4.46-1.56,.27-.13,.63,.07,.87-.22,1.48-.52,2.97-1.04,4.45-1.56,.27-.14,.63,.07,.87-.21,.53,.1,.76-.63,1.31-.48,.25-.29,.61-.18,.91-.27,.08-.04,.16-.09,.24-.14,1.99-.81,4.1-1.28,6.09-2.12,1.42-.6,2.97-.91,4.44-1.45,.69-.25,1.41-.44,2.12-.66,.28-.13,.64,.07,.88-.21,1.46-.53,2.93-1.06,4.39-1.6,.3-.14,.67,.13,.93-.18,.98-.56,2.1-.72,3.13-1.12,.35-.11,.77,.12,1.07-.22,.08-.07,.16-.14,.23-.21,.27-.18,.65,.08,.89-.22,1.42-.71,2.95-1.09,4.46-1.57,.28-.09,.62,.06,.86-.21,.74-.31,1.47-.63,2.21-.94,.25-.26,.67-.14,.92-.39,.44-.09,.94,.13,1.34-.23,.28-.1,.62,.05,.86-.21,.93-.69,2.07-.88,3.13-1.21,1.48-.46,2.93-.98,4.39-1.5,.23-.19,.52-.24,.77-.39,1.34-.05,2.49-.75,3.73-1.14,1.17-.37,2.33-.77,3.5-1.14,1-.32,2.11-.46,2.9-1.29h42.39c.18,1.67,.17,3.34,0,5.01-.23,.56-.77,.64-1.25,.8-5.27,1.78-10.59,3.44-15.88,5.16-5.26,1.7-10.51,3.44-15.77,5.14-.28,.09-.56,.2-.85,.21-.39,.09-.77,.25-1.14,.4-4.16,1.44-8.36,2.74-12.54,4.11-4.15,1.35-8.3,2.69-12.44,4.05-4.46,1.46-8.93,2.89-13.39,4.34-4.25,1.38-8.51,2.76-12.76,4.14-5.9,1.92-11.78,3.91-17.72,5.71-.28,.08-.55,.19-.81,.31-3.93,1.28-7.86,2.57-11.79,3.84-4.46,1.45-8.91,2.89-13.36,4.36-7.36,2.44-14.74,4.8-22.11,7.19-4.46,1.45-8.89,2.99-13.4,4.26-.27,.08-.54,.17-.79,.29-1.6,.55-3.19,1.15-4.86,1.47-.35,.22-.79,.25-1.12,.49,.01,0,.03,.09,.03,.09,0,0,.1,0,.11,0,1.23,.12,2.45-.02,3.67-.02,55.38,0,110.77,0,166.15,.01,.68,0,1.41-.2,2.04,.27,.2,.61,.1,1.24,.09,1.85-.04,3.85,.11,7.7-.07,11.55-.29,.31-.67,.28-1.03,.29-.52,.01-1.04,0-1.55,0-59.02,0-118.04,0-177.05,0-.66,0-1.33-.05-1.99,.07-.14,.04-.28,.06-.43,.08-.57-.03-1.14-.05-1.71-.08-.08-.05-.16-.09-.24-.14-.32-.08-.65-.03-.97-.05-.05,0-.09,0-.14,0-.52-.08-1.03-.16-1.55-.24-.08-.06-.17-.12-.26-.16-.44-.11-.94,.09-1.34-.25-1.86-.2-3.39-1.18-4.95-2.09-1.6-.94-3.09-2-4.37-3.36-.46-.49-.7-1.03-.9-1.62-.25-.24-.14-.66-.42-.89-.79-.3-.2-1.13-.61-1.58,0-.39,.01-.77-.22-1.11-.02-.15-.05-.3-.07-.45-.25-.66-.47-1.33,0-1.99,.21-2.03,.74-3.98,1.63-5.8,.38-.78,1.38-1.12,1.72-1.99,.14-.15,.32-.26,.48-.39,.78-.67,1.7-1.19,2.56-1.67,1.54-.85,3-1.87,4.74-2.36,1.58-.44,3.14-.95,4.67-1.59,.62-.26,1.31-.42,1.97-.65,.27-.23,.64-.2,.93-.38Z"/>
      <path class="cls-101" d="M96.44,9.75c.53-1.38,1-2.79,1.6-4.14,.82-1.84,1.65-3.67,2.2-5.61h20.2c.14,.15,.15,.33,.07,.51-1.74,4.06-3.62,8.06-5.4,12.1-.2,.29-.58,.47-.58,.89-.58,1.5-1.13,3.01-1.82,4.46-.15,.34-.44,.6-.56,.95-.82,1.87-1.61,3.76-2.38,5.65-.09,.19-.26,.32-.39,.48-.37,.58-.54,1.24-.81,1.87-.09,.36,.14,.3,.36,.26,3.42-1.41,6.96-2.49,10.42-3.78,4.4-1.63,8.85-3.13,13.27-4.71,6.82-2.43,13.65-4.84,20.47-7.28,6.96-2.5,13.9-5.02,20.89-7.44,3.21-1.11,6.43-2.2,9.58-3.46,.7-.28,1.48-.13,2.14-.51h47.94c-.28,.63-.97,.62-1.46,.79-2.49,.84-4.96,1.68-7.39,2.67-.66,.27-1.38,.77-2.22,.56-.28,.19-.66,.15-.92,.39-.73,.31-1.46,.62-2.2,.94-.21,.19-.5,.22-.73,.36-1.24,.11-2.41,.54-3.51,1.03-1.44,.64-2.96,1.04-4.43,1.6-1.21,.46-2.48,.79-3.68,1.33-.29,.13-.65,.09-.97,.13-.25,.25-.67,.12-.91,.38-1.81,.55-3.5,1.4-5.34,1.87-.49,.12-.97,.4-1.51,.41-.29,.18-.66,.15-.93,.38-1.04,.69-2.3,.77-3.43,1.26-1.32,.57-2.72,.98-4.09,1.46-.22,.18-.51,.23-.75,.38-1.02,.09-2,.3-2.82,.95-.31,.31-.72,.11-1.07,.22-1.05,.37-2.09,.74-3.14,1.11-.26,.3-.63,.04-.93,.18-1.64,.62-3.34,1.08-4.98,1.67-2.25,.8-4.5,1.6-6.76,2.36-1.57,.53-3.13,1.14-4.74,1.59-1.16,.32-2.32,.83-3.47,1.18-1.46,.45-2.89,.97-4.33,1.44-2.46,.79-4.89,1.66-7.33,2.51-2.02,.71-4.14,1.23-6.15,1.96-3.28,1.2-6.64,2.18-9.92,3.39-1.91,.7-3.89,1.29-5.85,1.9-1.51,.47-2.98,1.22-4.48,1.57-1.78,.41-3.35,1.44-5.19,1.55-.28,.19-.66,.15-.93,.39-1.52,.61-3.02,1.29-4.64,1.6-.05,0-.1,0-.15,0-.24,0-.48-.02-.72,.03-.09,.04-.17,.09-.24,.15-.06,.03-.12,.05-.19,.06-.31,.17-.67,.02-.99,.15-.36,.09-.74,.01-1.11,.09-.19,.08-.4,.04-.58,.15-2.05,0-4.1,.02-6.14,.03-.09-.05-.18-.11-.28-.15-.45-.16-.97,.08-1.38-.26-1.49-.19-2.91-.59-4.2-1.38-.25-.33-.63-.06-.92-.19-.66-.52-1.51-.8-1.99-1.56-.16-.24-.48-.23-.67-.43-1.63-1.29-2.78-2.89-3.33-4.93-.64-2.35-.64-4.67,.03-6.99,.26-.91,.69-1.72,1.3-2.5,.6-.77,.74-1.9,1.08-2.86,.82-2.35,2.02-4.53,2.8-6.88,.33-.98,.75-1.92,1.06-2.9,.17-.21,.33-.42,.31-.72,0-.26,.13-.46,.29-.65Z"/>
      <path class="cls-19" d="M114.86,12.66c.9-2.1,1.52-4.3,2.73-6.28,.87-1.43,1.34-3.1,1.94-4.68,.23-.61,.51-1.18,.91-1.7h65.25c-.88,.79-2.07,.88-3.11,1.3-1.88,.77-3.79,1.52-5.72,2.12-1.95,.61-3.85,1.34-5.79,1.96-2.27,.73-4.44,1.81-6.73,2.48-2.31,.67-4.52,1.57-6.77,2.39-2.3,.83-4.61,1.61-6.89,2.5-1.37,.54-2.8,.96-4.2,1.47-1.47,.53-2.96,.98-4.41,1.61-.9,.39-1.88,.69-2.83,.99-1.97,.61-3.9,1.33-5.84,2.03-1.89,.68-3.79,1.32-5.67,2.02-2.32,.87-4.64,1.72-6.97,2.52-2.28,.78-4.51,1.72-6.83,2.4-1.44,.42-2.92,.84-4.25,1.61-.26,.15-.64,.09-.96,.12-.67,.13-.34-.43-.47-.68,.25-.68,.44-1.38,.87-1.98,.23,0,.34-.16,.42-.35,.37-1.76,1.3-3.31,1.98-4.95,.14-.34,.04-.93,.59-1.08,.24-.07,.19-.32,.3-.47,.61-1.56,1.22-3.13,1.83-4.69,.21-.22,.43-.42,.61-.66Z"/>
      <path class="cls-54" d="M50.34,8.47c-.81,1.85-2.19,3.31-3.52,4.77-.42,.46-.44,1.24-1.17,1.41-.16,.23-.51,.2-.64,.47-.55,1.05-1.23,2-2.23,2.67-.18,.19-.51,.16-.63,.44-.63,1.55-2.09,2.36-3.15,3.52-.53,.58-1.25,.99-1.58,1.75-.15,.27-.47,.26-.67,.44-1.15,.76-2.14,1.73-3.26,2.55-2.81,2.08-5.73,3.95-8.87,5.51-2.94,1.46-6.01,2.56-9.15,3.43-2.08,.58-4.17,1.11-6.2,1.86-1.84,.68-3.65,1.45-5.49,2.12-.43,.16-.95,.1-1.43,.14-.21,.37-.64,.18-.92,.36-.42,0-.84,.01-1.25,.02-.29-.36-.14-.78-.14-1.17-.01-5.14,0-10.28,0-15.41,.06-.61,.57-.59,.98-.71,.54-.04,1.07-.07,1.59-.26,.35-.09,.73-.06,1.06-.23,.26-.05,.51-.16,.76-.23,6.22-1.49,12.11-3.81,17.72-6.88,2.47-1.35,4.85-2.85,7.13-4.47,1.7-1.21,3.4-2.47,4.83-4.02,.25-.16,.55-.26,.71-.55,1.49-1.44,2.96-2.9,4.15-4.61,.41-.59,1.04-.94,1.57-1.39h16.2c-1.21,1.7-2.32,3.47-3.66,5.09-.75,.91-1.28,2.02-2.1,2.9-.16,.22-.52,.19-.64,.48Z"/>
      <path class="cls-19" d="M34.33,6.75c-1.28,1.74-3.11,2.94-4.8,4.14-2.4,1.71-4.87,3.37-7.56,4.66-2.25,1.08-4.48,2.19-6.79,3.19-2.62,1.13-5.33,1.96-8.02,2.87-.84,.29-1.77,.69-2.75,.57-.23,.14-.48,.1-.74,.1-.14,0-.19,.13-.06,.07,0,0,.03,.05,.05,.08-.31,.38-.76,.11-1.12,.22-.41,.16-.86,.04-1.27,.2-.31,.41-.75,.14-1.12,.22-.19-.22-.13-.49-.13-.74,0-7.2,0-14.39,0-21.59,0-.25-.05-.52,.11-.75H40.53c-.18,1.06-1.29,1.36-1.78,2.21-.92,1.59-2.42,2.71-3.69,4.02-.23,.2-.61,.19-.74,.53Z"/>
      <path class="cls-54" d="M387.18,112.72c0,5.32,0,10.64,0,15.97-.3,.34-.7,.38-1.11,.4-.52,.02-1.04,.01-1.55,.01-55.44,0-110.87,0-166.31,0-.52,0-1.03,.03-1.67-.04,2.38,.71,4.51,1.76,6.72,2.58,6.82,2.54,13.55,5.32,20.36,7.87,3.42,1.28,6.77,2.77,10.2,4.04,4.12,1.53,8.21,3.14,12.3,4.75,3.81,1.5,7.65,2.93,11.47,4.42,4.68,1.84,9.36,3.65,14.05,5.46,3.76,1.45,7.52,2.89,11.25,4.4,5.79,2.34,11.64,4.49,17.45,6.79,5.46,2.16,10.97,4.19,16.42,6.36,6.25,2.49,12.54,4.85,18.78,7.34,4.69,1.88,9.44,3.65,14.15,5.49,4.64,1.82,9.34,3.51,13.94,5.43,1.2,.5,2.56,.76,3.57,1.7,0,1.22-.03,2.44,.04,3.65,.06,.91-.21,1.19-1.16,1.18-6.87-.04-13.74-.02-20.61-.02-5.17,0-10.34,0-15.51,0-.58,0-1.16-.09-1.74-.14-.02-.08-.04-.16-.06-.24-.24-.36-.62-.07-.92-.21-.66-.19-1.16-.79-1.91-.73-.24-.14-.53-.18-.74-.38-1.47-.79-3.01-1.37-4.6-1.85-.23-.15-.51-.17-.71-.37-1.46-.89-3.16-1.21-4.64-2.04-.26,.02-.5,0-.7-.19-1.67-.91-3.48-1.47-5.21-2.24-1.25-.56-2.53-1.03-3.77-1.6-.32-.15-.61-.21-.93-.22-.23-.15-.53-.19-.74-.38-1.26-.9-2.85-1.06-4.19-1.8-.2-.11-.37-.21-.48-.41-.21-.41-.61-.08-.88-.23-2.75-1.12-5.54-2.15-8.24-3.37-2.95-1.34-5.94-2.61-8.94-3.8-2.08-.82-4.07-1.88-6.24-2.54-1.43-.44-2.77-1.31-4.21-1.81-2.13-.73-4.04-1.98-6.24-2.5-.23-.17-.53-.2-.74-.39-1.52-.62-2.96-1.43-4.57-1.83-.24-.16-.54-.2-.77-.4-1.53-.6-2.96-1.44-4.57-1.83-.23-.16-.53-.2-.74-.39-1.52-.63-2.98-1.41-4.59-1.83-.23-.15-.53-.19-.74-.39-1.47-.77-3-1.38-4.59-1.83-.23-.16-.51-.19-.73-.38-1.47-.79-3.01-1.38-4.6-1.85-.23-.15-.52-.18-.72-.38-2.17-.93-4.3-1.97-6.55-2.74-1.35-.46-2.6-1.18-3.92-1.73-3.98-1.65-7.98-3.27-11.97-4.92-3.51-1.46-7.03-2.92-10.52-4.44-2.22-.96-4.43-1.98-6.67-2.89-1.69-.69-3.34-1.56-5.15-1.98-.23-.16-.52-.2-.74-.38-1.68-.65-3.36-1.27-5.03-1.94-2.04-.82-4.14-1.53-6.06-2.56-2.58-1.39-5.23-2.57-7.26-5-1.83-2.19-2.35-4.57-2.75-7.15-.21-.3-.21-.6,0-.9,.02-.29,.05-.58,.07-.87,.36-.3,.21-.79,.4-1.15,.19-1.77,.97-3.18,2.13-4.58,1.32-1.59,2.91-2.81,4.51-4.02,1.43-1.09,3.02-1.9,4.88-2.03,.55-.22,1.12-.22,1.69-.21,60.6,0,121.2,0,181.8,0,.61,0,1.26-.19,1.83,.22Z"/>
      <path class="cls-54" d="M179.27,200.37c-.71,.3-1.45,.14-2.18,.14-6.38,.02-12.75,.01-19.13,0-.51,0-1.02-.08-1.53-.12,.03-.33-.28-.37-.46-.53-.31-.09-.46-.32-.53-.61-.87-.96-1.8-1.86-2.8-2.68-.19-.21-.54-.19-.69-.47-.41-.82-1.14-1.39-1.8-1.96-1.14-.99-2.07-2.21-3.36-3.04-.43-.28-.72-.79-1.06-1.2-1.12-1.32-2.45-2.42-3.75-3.54-.12-.08-.22-.18-.3-.3-.08-.22-.2-.41-.41-.55-.76-.14-.86-.9-1.22-1.38-1.36-1.84-2.58-3.78-3.38-5.95-.07-.2-.05-.44-.08-.66-.21-.25-.3-.54-.31-.87-.24-.93-.02-1.86,0-2.79,0-.45,.19-.86,.32-1.29,.36-2.31,1.49-4.17,3.1-5.84,2.85-2.95,6.21-4.72,10.37-4.8,1.3-.31,2.61-.32,3.91,0,.35,.02,.69,.04,1.04,.05,.27,.24,.6,.18,.91,.18,.43,.09,.86,.18,1.29,.26,.21,.17,.46,.19,.71,.17,1.47,.6,2.93,1.2,4.4,1.8,.29,.14,.66-.11,.91,.2,1.17,.83,2.6,1.1,3.84,1.77,.29,.15,.53,.38,.83,.5,.19,.18,.43,.19,.67,.17,1.5,.79,3.27,.98,4.66,2.05,.19,.18,.43,.2,.67,.17,1.57,.64,3.23,1.08,4.65,2.05,.19,.18,.43,.19,.68,.17,1.47,.6,2.93,1.2,4.4,1.8,.11,.07,.25,.08,.37,.13,.18,.11,.33,.27,.56,.29,1.4,.59,2.8,1.18,4.21,1.77,.21,.55,.68,.48,1.12,.45,1.57,.64,3.2,1.14,4.65,2.05,.19,.18,.43,.19,.67,.17,1.56,.66,3.21,1.12,4.66,2.05,.19,.18,.43,.19,.67,.17,1.51,.77,3.26,1.01,4.65,2.05,.19,.18,.43,.19,.67,.17,3.51,1.47,7,3,10.54,4.41,3.6,1.43,7.17,2.92,10.72,4.45,.7,.3,1.38,.76,2.21,.73,.23,.17,.52,.2,.74,.39,1.75,.92,3.63,1.53,5.44,2.28,2.89,1.19,5.74,2.49,8.62,3.71,1.05,.44,2.13,.79,3.2,1.19,.21,.5-.15,.52-.48,.61-.63,.17-1.25,0-1.87,0-12.09,.01-24.17,.01-36.26,0-.8,0-1.62,.3-2.41-.05-.37-.11-.77,.02-1.13-.12-3.04-.75-5.67-2.49-8.57-3.56-2.32-.86-4.52-1.99-6.84-2.85-.9-.34-1.68-.93-2.56-1.32-.34-.17-.69-.33-1.08-.37-1.63-.49-3.13-1.29-4.67-1.99-3.35-1.53-6.74-2.98-10.14-4.37-3.48-1.42-6.82-3.14-10.31-4.52-.18-.1-.33-.25-.52-.34-.08-.05-.16-.11-.25-.12-.15-.01-.18,.12-.06,.02s.12,.19,.07,.06c.24,.13,.41,.33,.62,.49,1.26,1.37,2.78,2.47,4.05,3.82,.3,.32,.62,.62,.82,1.02,.08,.26,.29,.36,.53,.45,.8,.41,1.28,1.13,1.81,1.81,.15,.27,.44,.38,.67,.56,2.56,2.73,5.33,5.27,7.63,8.24,.09,.32,.35,.4,.63,.47,.91,.77,1.71,1.62,2.25,2.7Z"/>
      <path class="cls-54" d="M102.78,200.15c-.17,.48-.58,.36-.93,.36-7.29,0-14.58,0-21.87,0-.38,0-.83,.18-1.09-.3-.4,.09-.72-.18-1.09-.24-2.55-1.63-5.06-3.33-7.63-4.91-1.94-1.2-3.97-2.28-5.98-3.38-2.59-1.42-5.21-2.77-7.85-4.1-.27-.28-.61-.43-1-.49-13.34-5.94-27.13-10.42-41.54-12.92-.34-.12-.71-.11-1.06-.16-2.1-.18-4.13-.69-6.19-1.08-.22-.05-.41-.15-.62-.23-.42-.23-.85-.26-1.29-.08-.1,.03-.2,.05-.31,.06-.59,0-1.18-.06-1.7-.37-.27,.06,.24-.65-.35-.33-.31,.17-.72,.08-1.06,.23-.27,.05-.54,.06-.8-.04-.09-.06-.18-.13-.26-.21,0-5.25,0-10.5,0-15.75,.45-.33,.91-.27,1.37-.02,.64,.02,1.28,.03,1.92,.05,.41,.19,.87,.16,1.3,.27,.39,.11,.81-.06,1.18,.12l1.27,.05c.25,.16,.55,.03,.8,.15,.42,.12,.91-.06,1.29,.26,1.6-.04,3.13,.6,4.74,.46,.09,.05,.18,.1,.26,.15,.41,.11,.82,.04,1.23,.06,.22,0,.42,.04,.6,.19,2.81,.69,5.72,.86,8.51,1.71,.44,.13,.94,.09,1.41,.13,.38,.28,.82,.17,1.24,.2,.22,0,.44,.02,.6,.19,1.81,.56,3.69,.92,5.5,1.44,2.72,.77,5.42,1.65,8.13,2.44,2.41,.71,4.7,1.73,7.11,2.4,1.59,.45,3.12,1.15,4.66,1.79,2.3,.96,4.61,1.9,6.84,3.01,.3,.15,.52,.38,.82,.51,.19,.18,.43,.19,.68,.17,2.6,1.27,5.3,2.36,7.76,3.85,2.49,1.51,5.23,2.59,7.54,4.41,.2,.18,.48,.2,.69,.36,.9,.19,1.57,.75,2.2,1.38,.18,.22,.43,.22,.68,.21,2.4,1.4,4.6,3.09,6.89,4.65,1.83,1.25,3.55,2.64,5.28,4.02,.17,.13,.21,.27,.27,.43,.16,.24,.47,.23,.66,.41v.02c.15,.14,.19,.4,.45,.42,1.53,1.04,3.05,2.1,4.21,3.58,.27,.41,.71,.61,1.11,.86,1.26,1.09,2.88,1.83,3.41,3.6Z"/>
      <path class="cls-84" d="M155.46,199.25c.36,.04,.47,.31,.53,.61-.31,.37-.75,.27-1.14,.27-16.34,0-32.68,0-49.01,0-.15,0-.3,0-.44,0-.3-.01-.63,0-.66-.41-.02-.42,.3-.45,.6-.46,.22,0,.44,0,.67,0,16.49,0,32.97,0,49.46,0Z"/>
      <path class="cls-25" d="M387.18,112.27c0,.07,0,.14,0,.22-.42,.23-.87,.11-1.31,.11-60.62,0-121.24,0-181.86,0-.14,0-.28,0-.42,0-.17-.04-.22-.14-.14-.29,.63-.01,1.26-.03,1.88-.03,60.61,0,121.22,0,181.83,0Z"/>
      <path class="cls-126" d="M387.19,75.43c0,.08,0,.16,0,.25-.39,.17-.8,.09-1.21,.09-59.85,0-119.69,0-179.54,0-.4,0-.81,.08-1.21-.09-.03-.06-.05-.13-.05-.2,0,0,.02-.09,.02-.09,.41-.23,.86-.16,1.3-.16,59.8,0,119.6,0,179.39,0,.43,0,.9-.1,1.28,.21Z"/>
      <path class="cls-26" d="M205.24,75.68c1.48,0,2.96-.02,4.44-.02,58.65,0,117.31,0,175.96,0,.52,0,1.04,.01,1.55,.02,.02,.07,.02,.14,0,.2-60.19,0-120.39,0-180.58-.01-.45,0-.95,.19-1.36-.19Z"/>
      <path class="cls-95" d="M206.13,200.19c1.32,.2,2.63-.04,3.94-.03,11.47,.02,22.95,0,34.42,.01,.51,0,1.03,.07,1.54,.07,.49,0,1.05,.12,1.32-.49,.49-.05,.63,.43,.95,.63-.52,.29-1.08,.18-1.63,.18-12.99,0-25.97,0-38.96,0-.59,0-1.18,0-1.75-.19,0-.1,.05-.17,.16-.18Z"/>
      <path class="cls-33" d="M136.6,173.96c0,.88-.33,1.77,0,2.65-.13,.22-.03,.68-.54,.5-.19-1.14-.09-2.29-.07-3.43,0-.27-.05-.64,.43-.57,.22,.25,0,.59,.18,.85Z"/>
      <path class="cls-105" d="M187.43,61.46c0,.66,0,1.33,0,1.99-.89-1.02-.89-1.31,0-1.99Z"/>
      <path class="cls-50" d="M154.01,161.96c-1.3,0-2.61,0-3.91,0,.05-.08,.1-.15,.15-.23,1.18-.13,2.37-.13,3.55,0,.07,.08,.14,.16,.2,.23Z"/>
      <path class="cls-40" d="M153.81,161.72c-1.18,0-2.37,0-3.55,0,1.18-.29,2.37-.32,3.55,0Z"/>
      <path class="cls-88" d="M99.37,196.55c-.68,.1-1.18,0-1.11-.87,.61-.02,.95,.3,1.11,.87Z"/>
      <path class="cls-21" d="M189.92,175.94c-.58,.37-1.05,.45-1.12-.45,.3,.34,.84,.08,1.12,.45Z"/>
      <path class="cls-132" d="M27.22,160.17c-.42-.03-.95,.26-1.17-.39,.37,0,.75,0,1.12,0,.18,.11,.17,.24,.05,.38Z"/>
      <path class="cls-70" d="M96.4,10.6c.06,.44-.24,.5-.57,.52,0-.27,0-.55,.01-.82,.34-.28,.36-.26,.56,.31Z"/>
      <path class="cls-53" d="M191.26,53.28c0,.34-.14,.49-.48,.39-.13-.21-.6-.37-.31-.65,.28-.29,.47,.33,.8,.26Z"/>
      <path class="cls-91" d="M187.5,63.91c.62,.26,.48,.67,.22,1.11-.25-.33-.33-.7-.22-1.11Z"/>
      <path class="cls-64" d="M185.28,17.11c.28-.44,.7-.21,1.07-.22-.23,.71-.67,.35-1.07,.22Z"/>
      <path class="cls-23" d="M314.64,10.67c-.23,.7-.67,.38-1.07,.22,.28-.44,.7-.2,1.07-.22Z"/>
      <path class="cls-74" d="M4.57,156.62c-.45,.11-.78-.14-1.11-.39,.45-.02,.92-.18,1.32,.17-.03,.11-.1,.18-.22,.21Z"/>
      <path class="cls-142" d="M7.92,156.88c-.24-.07-.47-.14-.71-.21,.61-.02,1.23-.17,1.8,.17-.36,.23-.72,.17-1.09,.03Z"/>
      <path class="cls-122" d="M272,24.81c-.2,.84-.69,.37-1.1,.25,.3-.39,.74-.14,1.1-.25Z"/>
      <path class="cls-112" d="M324.21,7.13c-.08,.67-.58,.35-.92,.39,.13-.54,.56-.39,.92-.39Z"/>
      <path class="cls-79" d="M96.4,10.6c-.17-.13-.29-.36-.56-.31-.05-.46,.25-.53,.6-.54-.01,.28-.03,.57-.04,.85Z"/>
      <path class="cls-56" d="M205.21,10.18c.14-.53,.55-.39,.91-.38-.07,.68-.58,.33-.91,.38Z"/>
      <path class="cls-92" d="M190.34,123.34c-.09,.4,.43,1.01-.4,1.15,0-.43,.22-.78,.4-1.15Z"/>
      <path class="cls-62" d="M189.87,125.36c0,.3,0,.6,0,.9-.6-.3-.62-.6,0-.9Z"/>
      <path class="cls-43" d="M155.96,162.19c-.38,.33-.7,.35-.91-.18,.32,0,.67-.19,.91,.18Z"/>
      <path class="cls-130" d="M136.06,177.11c.18-.17,.36-.33,.54-.5,0,.31,.01,.62,.02,.93-.22-.1-.63,.05-.55-.43Z"/>
      <path class="cls-21" d="M94.05,192.11c-.06,.14-.07,.42-.29,.32-.31-.15-.14-.48-.16-.73,.29-.01,.48,.08,.45,.42Z"/>
      <path class="cls-78" d="M278.47,22.67c-.16,.62-.53,.34-.87,.2,.2-.46,.57-.16,.87-.2Z"/>
      <path class="cls-63" d="M257.16,29.75c-.18,.68-.57,.3-.91,.19,.24-.36,.6-.16,.91-.19Z"/>
      <path class="cls-94" d="M321.08,8.46c-.15,.63-.53,.34-.86,.21,.19-.46,.57-.17,.86-.21Z"/>
      <path class="cls-144" d="M315.77,10.24c-.16,.62-.55,.32-.89,.22,.19-.5,.58-.18,.89-.22Z"/>
      <path class="cls-2" d="M310.44,12.01c-.19,.66-.59,.3-.93,.18,.25-.37,.61-.17,.93-.18Z"/>
      <path class="cls-116" d="M197.44,12.84c.14-.54,.56-.39,.93-.38-.2,.39-.52,.48-.93,.38Z"/>
      <path class="cls-99" d="M200.42,74.77c.05,.07,.1,.14,.15,.2-.47,.03-.95,.18-1.37-.18,.4-.21,.81-.17,1.21-.02Z"/>
      <path class="cls-97" d="M305.11,13.79c-.16,.62-.54,.34-.88,.21,.19-.48,.58-.17,.88-.21Z"/>
      <path class="cls-141" d="M163.27,164.62c-.31-.02-.68,.18-.91-.2,.34-.12,.74-.48,.91,.2Z"/>
      <path class="cls-71" d="M27.22,160.17c-.02-.13-.03-.26-.05-.38,.27,.08,.8-.34,.72,.38-.22,0-.45,0-.67,0Z"/>
      <path class="cls-146" d="M181.22,18.4c.25-.36,.61-.17,.93-.18-.19,.67-.59,.29-.93,.18Z"/>
      <path class="cls-55" d="M188.34,66.59c.58,.09,.33,.57,.42,.89-.65-.06-.35-.56-.42-.89Z"/>
      <path class="cls-108" d="M289.13,19.12c-.16,.62-.54,.32-.87,.21,.19-.48,.57-.17,.87-.21Z"/>
      <path class="cls-145" d="M283.8,20.88c-.15,.63-.53,.34-.87,.22,.19-.48,.57-.17,.87-.22Z"/>
      <path class="cls-102" d="M206.13,46.63c-.2,.4-.53,.47-.93,.38,.14-.53,.57-.39,.93-.38Z"/>
      <path class="cls-117" d="M200.42,74.77c-.41,0-.81,.01-1.21,.02-.08-.08-.16-.15-.23-.23,.5-.02,1-.1,1.45,.21Z"/>
      <path class="cls-11" d="M221.64,4.41c.13-.54,.56-.39,.92-.39-.19,.4-.53,.46-.92,.39Z"/>
      <path class="cls-32" d="M273.15,24.44c-.2,.67-.6,.27-.94,.18,.26-.36,.62-.16,.94-.18Z"/>
      <path class="cls-106" d="M203.43,112.7c-.52,0-1.05,0-1.57,0,.16-.07,.33-.15,.49-.22,.36-.15,.71-.17,1.06,.01l.04,.02c.08,.05,.1,.1,.07,.13-.03,.03-.06,.05-.09,.05Z"/>
      <path class="cls-77" d="M183.92,173.55c-.08-.08-.17-.17-.25-.25,.35-.11,.77-.51,.89,.24-.21,.16-.42,.16-.64,.01Z"/>
      <path class="cls-100" d="M108.47,42.12c.15-.07,.29-.13,.44-.2,.33-.18,.67-.08,1.01-.08,.13,.06,.15,.15,.07,.27-.51,0-1.01,0-1.52,0Z"/>
      <path class="cls-52" d="M102.07,41.92c.09,.08,.17,.15,.26,.23-.54,0-1.1,.18-1.58-.21,.44-.18,.88-.16,1.32-.01Z"/>
      <path class="cls-18" d="M262.49,27.98c-.16,.62-.53,.35-.87,.21,.2-.46,.58-.15,.87-.21Z"/>
      <path class="cls-5" d="M102.07,41.92c-.44,0-.88,0-1.32,.01-.03-.06-.06-.13-.08-.2,.47,.02,.97-.19,1.4,.18Z"/>
      <path class="cls-57" d="M317.73,187.5c.34-.1,.77-.53,.88,.23-.29-.1-.67,.14-.88-.23Z"/>
      <path class="cls-27" d="M326.41,6.68c-.15,.63-.52,.34-.86,.21,.19-.46,.57-.16,.86-.21Z"/>
      <path class="cls-76" d="M95.55,40.17c.34-.12,.74-.49,.92,.19-.31-.03-.68,.18-.92-.19Z"/>
      <path class="cls-17" d="M117.09,39.91c.14-.54,.57-.38,.93-.39-.19,.4-.53,.48-.93,.39Z"/>
      <path class="cls-28" d="M347.24,199.93c.35-.12,.75-.5,.92,.21-.31-.03-.68,.17-.92-.21Z"/>
      <path class="cls-65" d="M238.32,35.98c-.21,.65-.6,.29-.95,.17,.26-.37,.62-.17,.95-.17Z"/>
      <path class="cls-93" d="M248.74,32.43c-.04,.76-.61,.29-.93,.4,.27-.23,.56-.4,.93-.4Z"/>
      <path class="cls-16" d="M203.43,75.22c.02,.06,.03,.13,.05,.19-.46-.02-.95,.24-1.36-.19,0,0,0-.01,0-.01,.44-.15,.88-.16,1.32,.01Z"/>
      <path class="cls-90" d="M210.97,142.92c.32-.01,.71-.16,.74,.38-.33,.04-.67,.08-.74-.38Z"/>
      <path class="cls-131" d="M.17,155.96c-.02-.07-.02-.14,.01-.2,.39,.07,.83-.13,1.17,.22-.4,.17-.79,.2-1.19-.02Z"/>
      <path class="cls-3" d="M.17,155.96c.4,0,.79,.01,1.19,.02,.06,.07,.12,.14,.19,.21-.46,0-.91,.01-1.37,.02,0-.08,0-.17,0-.25Z"/>
      <path class="cls-87" d="M4.57,156.62c.07-.07,.14-.14,.22-.21,.39,.06,.81-.07,1.16,.22-.46,0-.91,0-1.37,0Z"/>
      <path class="cls-9" d="M7.92,156.88c.36-.01,.73-.02,1.09-.03,.09,.08,.19,.16,.29,.23-.47,.02-.96,.17-1.38-.2Z"/>
      <path class="cls-46" d="M14.33,157.77c-.1-.07-.19-.15-.29-.23,.46,0,.92,.02,1.38,.03,.06,.06,.09,.11,.07,.17-.02,.06-.04,.09-.06,.09-.37,.03-.74,.12-1.09-.06Z"/>
      <path class="cls-8" d="M15.39,157.76c.02-.06,.03-.12,.03-.19,.32-.03,.63-.04,.71,.38-.22,0-.44,0-.67,0-.08-.02-.11-.06-.11-.11,0-.06,.01-.09,.03-.09Z"/>
      <path class="cls-49" d="M256.48,161.99c.3,.01,.71-.19,.72,.38-.33,.05-.64,.06-.72-.38Z"/>
      <path class="cls-81" d="M157.96,162.63c-.33,.34-.57,.27-.71-.17,.25-.01,.54-.16,.71,.17Z"/>
      <path class="cls-129" d="M261.81,164.22c.32-.02,.71-.19,.73,.38-.32,.03-.65,.06-.73-.38Z"/>
      <path class="cls-85" d="M267.13,166.43c.31,0,.73-.19,.74,.39-.33,.03-.66,.05-.74-.39Z"/>
      <path class="cls-115" d="M168.61,167.06c-.32,.32-.55,.3-.67-.17,.24-.02,.51-.15,.67,.17Z"/>
      <path class="cls-82" d="M272.46,168.65c.32,0,.72-.17,.74,.39-.33,.03-.67,.07-.74-.39Z"/>
      <path class="cls-15" d="M173.94,169.28c-.32,.32-.56,.3-.67-.17,.24-.02,.51-.14,.67,.17Z"/>
      <path class="cls-59" d="M277.77,170.87c.33,0,.72-.14,.77,.4-.33,.02-.69,.08-.77-.4Z"/>
      <path class="cls-123" d="M179.27,171.5c-.32,.32-.56,.29-.68-.17,.24-.02,.52-.14,.68,.17Z"/>
      <path class="cls-34" d="M61.63,171.94c-.32,.32-.56,.29-.68-.17,.25-.02,.52-.15,.68,.17Z"/>
      <path class="cls-42" d="M136.6,173.96c-.22-.25-.2-.55-.18-.85,.07-.17,.14-.34,.21-.51-.01,.46-.02,.91-.03,1.37Z"/>
      <path class="cls-73" d="M218.71,5.71c0-.59,.43-.35,.73-.36-.09,.42-.39,.43-.73,.36Z"/>
      <path class="cls-41" d="M183.92,173.55c.21,0,.43,0,.64-.01,.01,.06,.02,.12,.03,.18-.32,.31-.55,.3-.67-.17Z"/>
      <path class="cls-137" d="M50.34,8.47c-.02-.47,.31-.48,.64-.48,.06,.52-.3,.49-.64,.48Z"/>
      <path class="cls-143" d="M109.99,42.11c0-.06-.03-.11-.05-.17-.06-.1-.04-.17,.08-.21,.38,0,.75,0,1.13,0-.39,.13-.77,.25-1.16,.38Z"/>
      <path class="cls-12" d="M334.7,3.58c-.04,.55-.44,.41-.77,.39,.08-.47,.43-.41,.77-.39Z"/>
      <path class="cls-98" d="M195.24,178.15c-.32,.32-.55,.29-.67-.17,.24-.02,.51-.14,.67,.17Z"/>
      <path class="cls-38" d="M77.62,180.56c-.32,.06-.62,.06-.69-.36,.29,0,.7-.23,.69,.36Z"/>
      <path class="cls-125" d="M200.57,180.37c-.32,.32-.56,.3-.67-.17,.24-.02,.51-.14,.67,.17Z"/>
      <path class="cls-128" d="M45,15.11c0-.46,.32-.46,.64-.47,.06,.53-.33,.45-.64,.47Z"/>
      <path class="cls-61" d="M80.51,182.15c-.35,.32-.58,.27-.68-.21,.24,.04,.53-.12,.68,.21Z"/>
      <path class="cls-37" d="M205.9,182.59c-.32,.33-.55,.29-.67-.17,.24-.02,.52-.15,.67,.17Z"/>
      <path class="cls-14" d="M141.29,185.52c.33-.03,.63-.01,.66,.43-.22,.16-.43,.17-.63-.04,0-.13-.01-.26-.02-.39Z"/>
      <path class="cls-22" d="M141.31,185.91c.21,.01,.42,.02,.63,.04,.02,.14,.03,.28,.05,.41-.34,.01-.65,0-.68-.45Z"/>
      <path class="cls-118" d="M189.17,15.94c.02-.58,.44-.37,.75-.38-.09,.44-.42,.42-.75,.38Z"/>
      <path class="cls-83" d="M323.28,189.95c.3,.01,.73-.21,.74,.38-.34,.06-.65,.05-.74-.38Z"/>
      <path class="cls-119" d="M93.59,191.67c-.33,.04-.63,.03-.66-.41,.29,.03,.69-.12,.66,.41Z"/>
      <path class="cls-24" d="M283.11,173.09c.32-.01,.72-.15,.74,.39-.33,.02-.66,.06-.74-.39Z"/>
      <path class="cls-134" d="M230.09,192.57c-.32,0-.71,.15-.74-.39,.33-.02,.66-.06,.74,.39Z"/>
      <path class="cls-30" d="M333.93,194.39c.25,0,.53-.14,.7,.19-.34,.35-.57,.26-.7-.19Z"/>
      <path class="cls-1" d="M42.14,18.22c-.02-.48,.3-.47,.63-.44,.03,.5-.32,.45-.63,.44Z"/>
      <path class="cls-29" d="M151.97,196.11c.31,.04,.71-.05,.69,.47-.34,0-.67,0-.69-.47Z"/>
      <path class="cls-96" d="M339.27,196.61c.29,.01,.71-.21,.71,.37-.33,.06-.63,.06-.71-.37Z"/>
      <path class="cls-111" d="M344.59,198.82c.3,.02,.73-.21,.74,.38-.34,.06-.65,.06-.74-.38Z"/>
      <path class="cls-107" d="M1.43,39.92c.31-.12,.61-.24,.92-.36-.07,.72-.6,.27-.92,.36Z"/>
      <path class="cls-114" d="M92.89,38.18c.33-.02,.65-.02,.67,.43-.3-.02-.7,.11-.67-.43Z"/>
      <path class="cls-39" d="M302.61,13.56c-.14,.07-.23,.15-.3,.14-.07-.01-.13-.12-.19-.18,.08-.05,.15-.14,.23-.14,.07,0,.14,.1,.26,.18Z"/>
      <path class="cls-6" d="M36.73,23.94c-.03-.52,.37-.41,.67-.44-.01,.46-.33,.47-.67,.44Z"/>
      <path class="cls-124" d="M291.59,18.23c-.01,.06-.02,.12-.04,.18-.25,.16-.5,.18-.74-.01,.18-.41,.52-.13,.78-.17Z"/>
      <path class="cls-67" d="M111.34,41.68c0-.06,0-.13,0-.19,.36-.17,.72-.15,1.09-.01l.02,.03c-.32,.39-.73,.16-1.11,.17Z"/>
      <path class="cls-68" d="M290.81,18.41c.25,0,.49,0,.74,.01-.32,.35-.72,.24-1.11,.22,.12-.08,.25-.15,.37-.23Z"/>
      <path class="cls-127" d="M203.41,112.5c-.35,0-.71,0-1.06-.01,.32-.36,.73-.19,1.11-.18-.01,.07-.03,.13-.05,.19Z"/>
      <path class="cls-89" d="M386.93,5.08c.28,.29,.29,.64,.29,1.02,0,18.12,0,36.25,0,54.37,0,.11-.02,.22-.03,.33-.25,.27-.57,.31-.91,.32-.3,0-.59,0-.89,0-55.63,0-111.27,0-166.9,0-.84,0-1.72,.1-2.41-.56,1.71-.52,3.43-1.04,5.14-1.56,.13-.2,.43,.07,.54-.19,1.98-.86,4.08-1.32,6.11-2.02,2.06-.71,4.1-1.55,6.21-2.07,2.16-.53,4.15-1.51,6.33-1.98,1.58-.34,3.07-1.07,4.62-1.59,1.54-.51,3.09-.98,4.63-1.47,2.07-.65,4.1-1.45,6.18-2.06,2.06-.6,4.06-1.36,6.12-1.95,1.58-.46,3.12-1.01,4.68-1.52,1.59-.52,3.19-1.03,4.77-1.57,2.05-.7,4.13-1.29,6.17-2.04,1.15-.42,2.34-.92,3.59-1.06,.56-.06,.94-.62,1.54-.48,.16-.12,.34-.07,.52-.09,.15-.02,.23-.08,.09-.02-.14,.06,0-.21-.07-.08,2.07-.8,4.21-1.39,6.32-2.05,1.99-.62,3.92-1.47,5.94-1.99,1.6-.41,3.09-1.11,4.68-1.54,1.57-.42,3.07-1.11,4.64-1.51,1.77-.45,3.44-1.19,5.21-1.64,1.48-.38,2.91-.98,4.39-1.43,1.67-.51,3.33-1.07,4.99-1.63,2.01-.67,4.02-1.37,6.04-2.03,1.62-.53,3.27-.99,4.89-1.52,2.98-.98,5.94-2,8.93-2.97,2.08-.67,4.19-1.26,6.27-1.94,2.09-.68,4.16-1.43,6.24-2.14,.17-.06,.36-.04,.55-.05,.28-.2,.74,.02,.93-.4,1.19-.23,2.29-.74,3.46-1.05,1.65-.43,3.24-1.1,4.87-1.64,2.54-.85,5.08-1.7,7.64-2.52,2.11-.68,4.29-1.17,6.35-1.98,2.06-.8,4.2-1.35,6.28-2.09,1.67-.59,3.36-1.18,5.08-1.66Z"/>
      <path class="cls-109" d="M387.19,75.43c-40.17,0-80.34,0-120.51,0-20.05,0-40.1,0-60.14,0-.44,0-.88-.03-1.33-.05,.08-.24,.23-.37,.49-.38,.33,0,.67-.01,1-.01,60.16,0,120.33,0,180.49,0v.44Z"/>
      <path class="cls-66" d="M387.18,61.45c0,.08,0,.16,0,.23-56.33,0-112.66,0-168.99,.03-1.11,0-2.22-.03-3.33-.05-.21,0-.81,.26-.54-.43,.78,.18,1.53-.12,2.3-.12,56.26,.02,112.51,.02,168.77,.02,.61,0,1.27-.18,1.8,.31Z"/>
      <path class="cls-20" d="M216.07,60.57c2.09,.39,4.2,.22,6.29,.22,54.94,0,109.88,0,164.81,0,0,.07,0,.15,0,.22-.57,.4-1.22,.22-1.83,.22-55.91,0-111.82,0-167.73,.01-.59,0-1.18-.03-1.77,.03-.27,.05-.55,.17-.81-.06,.01-.74,.82-.23,1.04-.65Z"/>
      <path class="cls-48" d="M215.04,61.21c.21,0,.41,0,.62-.01,.4-.14,.81-.07,1.21-.07,56.37,0,112.74,0,169.12,0,.4,0,.81-.1,1.2,.1,.03,.07,.03,.14,0,.21-25.25,0-50.51,0-75.76,0-31.87,0-63.75,0-95.62,0-.5,0-1.04,.18-1.49-.22,.24-.2,.48-.13,.73-.02Z"/>
      <path class="cls-120" d="M203.43,75.22c-.44,0-.88,0-1.32-.01,.44-.36,.88-.29,1.32,.01Z"/>
      <path class="cls-58" d="M353.25,16.01c0,.83-.63,.25-.93,.4,.31-.13,.62-.27,.93-.4Z"/>
      <path class="cls-113" d="M283.26,38.84c.1,.02,.19,.05,.29,.07-.03,.04-.06,.11-.09,.11-.25,.01-.5,0-.74,0,.13-.21,.33-.22,.54-.19Z"/>
      <path class="cls-135" d="M221.76,58.82c.07,0,.15,0,.2,.02,.09,.05,.16,.13-.02,.15-.24,.02-.48,.01-.73,.02,.14-.18,.32-.24,.54-.19Z"/>
      <path class="cls-51" d="M108.26,26.84c.24,.17,.13,.58,.47,.68-.19,.18-.45,.35-.64,.15-.29-.3,.03-.57,.18-.83Z"/>
      <path class="cls-31" d="M114.86,12.66c.1,.51-.1,.73-.61,.66-.14-.54,.28-.56,.61-.66Z"/>
      <path class="cls-13" d="M109.55,24.51c0,.25,.13,.55-.23,.66-.03,0-.12-.2-.19-.31,.01-.27,.24-.29,.42-.35Z"/>
      <path class="cls-139" d="M112.41,18.01c-.08,.17,.3,.64-.3,.47,.02-.21,.13-.36,.3-.47Z"/>
      <path class="cls-35" d="M112.43,41.48c-.36,0-.72,0-1.09,.01,.36-.3,.72-.34,1.09-.01Z"/>
      <path class="cls-86" d="M110.03,41.74c-.03,.07-.05,.14-.08,.21-.34,0-.69-.02-1.03-.02,.33-.31,.73-.2,1.12-.18Z"/>
      <path class="cls-7" d="M1.28,22.86c.36-.46,.84-.18,1.27-.2-.42,.08-.81,.4-1.27,.2Z"/>
      <path class="cls-47" d="M34.33,6.75c0-.53,.35-.55,.74-.53-.05,.46-.41,.48-.74,.53Z"/>
      <path class="cls-80" d="M3.67,22.44c-.11-.02-.27-.01-.31-.08-.16-.25,.12-.17,.19-.17,.29-.02,.57,0,.86,0-.2,.23-.49,.19-.74,.25Z"/>
      <path class="cls-89" d="M387.19,195.7c-.9-.18-1.77-.4-2.6-.86-1.04-.57-2.19-.98-3.32-1.35-1.4-.46-2.68-1.2-4.08-1.61-1.03-.3-1.96-.83-3.01-1.11-1.3-.35-2.59-.84-3.8-1.44-1.22-.6-2.52-.97-3.73-1.58-1.2-.6-2.51-.97-3.79-1.39-1.64-.54-3.21-1.27-4.84-1.85-1.49-.53-3.01-1.1-4.47-1.77-1.49-.68-3.13-1.11-4.63-1.76-1.89-.81-3.82-1.53-5.72-2.3-1.14-.46-2.31-.93-3.54-1.24-1.14-.28-2.15-1.05-3.31-1.42-2.29-.73-4.51-1.69-6.74-2.58-1.64-.65-3.3-1.43-4.95-1.96-1.47-.47-2.86-1.17-4.34-1.63-1.54-.49-3.07-1.23-4.6-1.84-1.83-.71-3.67-1.41-5.51-2.1-1.31-.49-2.69-.83-3.93-1.52-1.57-.87-3.34-1.24-4.98-1.97-1.32-.59-2.65-1.15-4.01-1.63-.86-.3-1.69-.77-2.55-.95-1.1-.23-1.98-.88-3.02-1.19-2.29-.7-4.5-1.67-6.73-2.53-1.91-.73-3.79-1.6-5.73-2.26-1.5-.51-2.91-1.23-4.41-1.75-1.25-.43-2.54-1-3.79-1.45-1.69-.6-3.27-1.45-4.97-2-.99-.32-1.95-.73-2.93-1.07-2.62-.91-5.12-2.11-7.77-2.97-2.11-.69-4.08-1.84-6.19-2.54-2.17-.71-4.29-1.58-6.42-2.38-2.43-.91-4.87-1.87-7.28-2.89-1.64-.7-3.33-1.33-5.02-1.93-1.53-.54-3.02-1.19-4.53-1.77-1.57-.6-3.15-1.16-4.71-1.77-1.31-.52-2.57-1.16-3.9-1.61-.71-.24-1.4-.45-2.03-1.03h171.87c.01,.96,.04,1.92,.04,2.88,0,21.16,0,42.32,0,63.48,0,.22-.02,.44-.03,.66Z"/>
      <path class="cls-89" d="M2.56,172.13c.68,.09,1.36,.19,2.03,.28,.6-.03,1.2-.02,1.77,.18,1.47,.03,2.91,.39,4.3,.78,.73,.21,1.54-.28,2.16,.34,.35,.24,.72,.13,1.09,.05,1.9,.35,3.8,.66,5.69,1.08,.94,.21,1.9,.35,2.81,.76,.72,.33,1.6,.21,2.42,.5,2.06,.72,4.25,.95,6.33,1.73,1.1,.41,2.34,.6,3.49,.98,1.55,.51,3.1,1.01,4.65,1.52,1.16,.38,2.35,.67,3.47,1.16,1.63,.7,3.31,1.3,4.94,2.04,1.37,.63,2.9,1.03,4.26,1.73,1.23,.63,2.61,.87,3.79,1.61,.18,.27,.52,.21,.76,.37,.65,.69,1.63,.7,2.4,1.17,1.57,.97,3.27,1.7,4.85,2.69,1.12,.7,2.45,1.17,3.59,1.91,1.27,.83,2.64,1.47,3.91,2.31,1.18,.77,2.43,1.53,3.66,2.25,1.07,.63,2.1,1.43,3.14,2.16,.12,.27,0,.44-.26,.48-.33,.05-.66,.02-1,.02-25.14,0-50.29,0-75.43,0-.4,0-.81,.1-1.2-.1-.01-8.51-.03-17.02-.03-25.53,0-.88,.02-1.77,.04-2.65,.07,0,.13,0,.2,.02,.51,.25,1.01-.05,1.52-.02,.23,0,.47,0,.66,.17Z"/>
      <path class="cls-19" d="M167.99,188.68l-1.8-1.86c-.23-.16-.53-.21-.68-.47-.9-1.41-2.33-2.29-3.45-3.48-.46-.49-.92-.96-1.39-1.44-.07-.3-.09-.58,.35-.58,2.4,.96,4.76,1.98,7.05,3.21,1.5,.8,3.25,1.13,4.82,1.87,1.51,.72,2.95,1.72,4.54,2.12,1.75,.44,3.3,1.29,4.9,1.98,1.08,.46,2.34,.72,3.25,1.6,.21,.2,.66-.02,.94,.22,.16,.33,.54,.09,.75,.29,.47-.14,.72,.29,1.03,.47,2.06,1.14,4.29,1.89,6.4,2.91,1.16,.56,2.53,.94,3.75,1.5,1.5,.69,3.03,1.31,4.48,2.11,.64,.35,1.5,.47,2.23,.8-.41,.45-.96,.31-1.46,.31-7.68,0-15.36,0-23.05,0-.4,0-.81-.08-1.2,.09-.05,.03-.11,.05-.17,.04-1.04-.6-1.51-1.76-2.43-2.48-.19-.2-.53-.18-.66-.46-1.3-1.75-2.91-3.22-4.39-4.81-1.11-1.19-2.3-2.3-3.26-3.62-.15-.17-.38-.19-.54-.32Z"/>
      <path class="cls-110" d="M203.43,112.7c.01-.06,.02-.12,.02-.18,.74,0,1.48-.02,2.22-.02,60.21,0,120.42,0,180.63,0,.3,0,.59,0,.89,0,0,.08,0,.16,0,.24-49.97,0-99.94,0-149.91,0-11.28,0-22.56,0-33.84-.01Z"/>
      <path class="cls-136" d="M387.18,61.24c-56.81,0-113.61,0-170.42,0-.37,0-.74-.02-1.11-.04,.47-.35,1-.18,1.5-.18,56.67,0,113.35,0,170.02-.01,0,.07,0,.15,0,.22Z"/>
      <path class="cls-4" d="M.18,200.14c25.43,0,50.86,0,76.29-.02,.53,0,1.21,.35,1.59-.37,.28,.16,.55,.31,.83,.47-.37,.26-.79,.16-1.19,.16-25.52,0-51.05,0-76.57,0-.31,0-.74,.26-.96-.23Z"/>
      <path class="cls-4" d="M179.44,200.34c.34-.32,.77-.19,1.16-.19,7.72,0,15.43,0,23.15,.01,.49,0,.93-.18,1.4-.23,.33,.09,.66,.18,.98,.27-.05,.06-.1,.12-.16,.18-8.85-.01-17.69-.02-26.54-.04Z"/>
      <path class="cls-104" d="M161,180.84c-.12,.19-.23,.39-.35,.58-.36,.09-.23-.51-.6-.41-.19-.04-.19-.15-.09-.27,.16-.2,.36-.3,.62-.15,.17,.03,.39-.02,.41,.25Z"/>
      <path class="cls-44" d="M160.59,180.59c-.23,.08-.43,.18-.53,.43-.46,0-.45-.52-.78-.7,.49-.08,.92,.02,1.31,.27Z"/>
      <path class="cls-133" d="M167.99,188.68c.27-.05,.65-.28,.54,.32-.24,0-.61,.21-.54-.32Z"/>
      <path class="cls-140" d="M176.18,197.43c.33,0,.66,0,.66,.46-.34,.01-.66,0-.66-.46Z"/>
      <path class="cls-69" d="M165.5,186.34c.34,0,.55,.18,.68,.47-.34,0-.67,0-.68-.47Z"/>
      <path class="cls-75" d="M187.25,192.14c-.27-.04-.71,.32-.75-.3,.25,.1,.5,.2,.75,.3Z"/>
      <path class="cls-60" d="M2.56,172.13c-.22,0-.44,.01-.66,.02-.19-.19-.53,.06-.68-.24,.46-.34,.99-.21,1.46-.13,.29,.05-.1,.21-.12,.35Z"/>
      <path class="cls-103" d="M6.36,172.6c-.59-.03-1.22,.24-1.77-.18,0,0-.03-.03-.03-.03,.41-.13,.82-.16,1.23,.02,.19,.06,.38,.13,.57,.19Z"/>
      <path class="cls-121" d="M1.22,171.91c.22,.1,.53-.06,.68,.24-.51,0-1.04,.15-1.52-.17,.28-.02,.56-.05,.84-.07Z"/>
      <path class="cls-45" d="M15.39,157.76c.03,.06,.06,.13,.08,.2-.39,0-.8,.15-1.13-.18,.35,0,.7,0,1.05-.01Z"/>
      <path class="cls-36" d="M5.8,172.41c-.41,0-.82-.01-1.23-.02,.42-.34,.83-.29,1.23,.02Z"/>
      <path class="cls-138" d="M13.92,173.77c-.38,.24-.75,.35-1.09-.05,.36,.02,.73,.03,1.09,.05Z"/>
      <path class="cls-10" d="M56.52,187.25c-.26-.12-.81,.38-.76-.37,.35-.07,.53,.21,.76,.37Z"/>
    </g>
  </g>
</svg>